# xmcd
#
# Track frame offsets:
#	150
#	21115
#	46665
#	67205
#	82677
#	99717
#	119980
#	137780
#	155470
#	185295
#	198140
#	213730
#	227802
#	259545
#	272330
#
# Disc length: 3877 seconds
#
# Revision: 2
# Processed by: cddbd v1.4PL0 Copyright (c) Steve Scherf et al.
# Submitted via: audiograbber 1.80.04
#
DISCID=cf0f230f
DTITLE=Taxim - Even More good whiskey blues
DYEAR=1900
DGENRE=
TTITLE0=KENNY LEE - Blues Party
TTITLE1=BIRD DOGS- Bye Bye Baby
TTITLE2=ROCKY SHELTON - Twist of Fate
TTITLE3=MARY-ANN BRADON - It's a Dirty Job
TTITLE4=THE NASHVILLE KATZ - Snakin'
TTITLE5=BLUE FLAMES - One Step Closer to the Blues
TTITLE6=FRED JAMES - Everybody's Gettin' Them Some
TTITLE7=KENNY LEE - Country Boy
TTITLE8=BILLY C. FARLOW - Trouble's Come to the Delta
TTITLE9=JIMMY MARKHAM - You're So Fine
TTITLE10=ROCKY SHELTON - Strength to Stand Alone
TTITLE11=BILLY EARL McLELLAND - Highway Blues
TTITLE12=ZIP GIBSON - Snowing in Memphis
TTITLE13=BILLY EARL McLELLAND - Tall Girl in a Short Dress
TTITLE14=GREG "FINGERS" TAYLOR - The Battle is Over
EXTD=
EXTT0=
EXTT1=
EXTT2=
EXTT3=
EXTT4=
EXTT5=
EXTT6=
EXTT7=
EXTT8=
EXTT9=
EXTT10=
EXTT11=
EXTT12=
EXTT13=
EXTT14=
PLAYORDER=
